@startuml
skinparam classAttributeIconSize 0
left to right direction

interface IRegistrarChamados

class TelaAberturaChamado <<boundary>> {
  + exibirFormulario()
  + enviar(dados)
  + mostrarConfirmacao()
  + mostrarErro(msg)
}

class ControleAberturaChamado <<control>> {
  + abrirChamado(dados, usuarioId: int): Chamado
}

class Chamado <<entity>> {
  - id:int
  - titulo:string
  - descricao:string
  - dataAbertura:datetime
  - status:string
  - impacto:string
  - urgencia:string
  - prioridade:string
  + abrir()
}

class Usuario <<entity>> {
  - id:int
  - nome:string
  - email:string
}

interface IChamadoRepository { 
  + save(c: Chamado)
}

interface IHistoricoRepository { 
  + registrar(chamadoId: int, acao: string, detalhes: string)
}

ControleAberturaChamado ..|> IRegistrarChamados
TelaAberturaChamado --> ControleAberturaChamado : enviar(dados)
ControleAberturaChamado ..> Usuario
ControleAberturaChamado ..> Chamado : criar/abrir
ControleAberturaChamado ..> IChamadoRepository : save()
ControleAberturaChamado ..> IHistoricoRepository : registrar("Abertura")
Usuario "1" -- "0..*" Chamado : abre
@enduml